# xmcd
#
# Track frame offsets:
# 150
# 15125
# 31486
# 46375
# 62727
# 77787
# 94336
# 108795
# 122587
# 139538
# 157484
# 173678
# 189266
# 203570
# 216387
# 233338
# 252489
# 271497
# 286860
# 302162
#
# Disc length: 4216 seconds
#
#
# Revision: 1
# Processed by: cddbd v1.5.1PL0 Copyright (c) Steve Scherf et al.
# Submitted via: FreeRIP 2.60 
#
DISCID=0f107614
DTITLE=Alabama-Ultimate 20 #1 Hits - Ultimate Alabama 20 #1 Hits
DYEAR=2004
DGENRE=Country
TTITLE0=Born Country
TTITLE1=Jukebox In My Mind
TTITLE2=Reckless
TTITLE3=Feels So Right
TTITLE4=Love In The First Degree
TTITLE5=Mountain Music
TTITLE6=Song Of The South
TTITLE7=Tennessee River
TTITLE8=Take Me Down
TTITLE9=Lady Down On Love
TTITLE10=She And I
TTITLE11=Down Home
TTITLE12=Why Lady Why
TTITLE13=I'm In A Hurry (And Don't Know Why)
TTITLE14=Roll On (Eighteen Wheeler)
TTITLE15=You've Got The Touch
TTITLE16=There's No Way
TTITLE17=Forty Hour Week (For A Livin')
TTITLE18=If You're Gonna Play In Texas (You Gotta Have A Fiddle In The Band)
TTITLE19=Southern Star
EXTD=
EXTT0=
EXTT1=
EXTT2=
EXTT3=
EXTT4=
EXTT5=
EXTT6=
EXTT7=
EXTT8=
EXTT9=
EXTT10=
EXTT11=
EXTT12=
EXTT13=
EXTT14=
EXTT15=
EXTT16=
EXTT17=
EXTT18=
EXTT19=
PLAYORDER=
